<svg xmlns="http://www.w3.org/2000/svg" viewBox="0 0 512 455.5"><path d="M256 455.5c-7.3 0-14.3-2.6-19.8-7.4C215.5 430 195.6 413 178 398l-0.1-0.1C126.3 354 81.8 316 50.8 278.6 16.1 236.8 0 197.2 0 153.9 0 111.8 14.4 73 40.6 44.6 67.1 15.8 103.5 0 143 0c29.6 0 56.6 9.3 80.4 27.8 12 9.3 22.9 20.7 32.5 34 9.6-13.3 20.5-24.7 32.5-34C312.4 9.3 339.4 0 369 0c39.5 0 75.9 15.8 102.4 44.6C497.6 73 512 111.8 512 153.9c0 43.3-16.1 82.9-50.8 124.7 -31 37.4-75.5 75.4-127.1 119.3 -17.6 15-37.6 32-58.3 50.2C270.3 452.9 263.3 455.5 256 455.5zM143 30C112 30 83.4 42.4 62.7 64.9 41.6 87.8 30 119.4 30 153.9c0 36.4 13.5 69 43.9 105.6 29.3 35.4 73 72.6 123.5 115.6l0.1 0.1c17.7 15.1 37.7 32.1 58.5 50.3 21-18.3 41-35.3 58.7-50.4 50.5-43.1 94.1-80.2 123.5-115.6 30.3-36.6 43.9-69.2 43.9-105.6 0-34.5-11.6-66.1-32.7-89C428.6 42.4 400 30 369 30c-22.8 0-43.7 7.2-62.1 21.5 -16.4 12.7-27.9 28.8-34.6 40 -3.5 5.8-9.5 9.2-16.3 9.2s-12.8-3.5-16.3-9.2c-6.7-11.2-18.2-27.3-34.6-40C186.7 37.2 165.8 30 143 30z"/></svg>