<svg xmlns="http://www.w3.org/2000/svg" viewBox="0 0 424.7 273.1">
    <rect x="338.1" y="256.7" width="86.5" height="2.8"/>
    <rect y="256.7" width="86.5" height="2.8"/>
    <path d="M299.7 249.2h3v9.7h9.2v-9.7h3v23.4h-3v-11h-9.2v11h-3V249.2z"/>
    <path d="M239.7 265.1c0.6 2.9 2 5 5.1 5 2.5 0 4.4-1.3 4.4-3.9 0-2.9-2.4-3.6-4.7-4.5 -3.4-1.4-6.6-2.3-6.6-6.7 0-3.9 3.2-6.1 6.9-6.1 3.9 0 6.2 2.2 7.1 5.9l-2.9 0.9c-0.5-2.3-1.7-3.9-4.3-3.9 -1.9 0-3.8 1-3.8 3.1 0 2.2 1.3 2.8 3.1 3.6l5 2.2c2.1 1.2 3.2 3.1 3.2 5.5 0 4.4-3.1 7-7.4 7 -4.3 0-7.1-2.8-7.8-6.9L239.7 265.1z"/>
    <path d="M177.7 266.2l-2.2 7 -3.3-0.1 7.7-23.8h3.9l7.8 23.9 -3.4 0.1 -2.1-6.9h-8.4V266.2zM181.8 252.7l-3.3 10.8h6.6L181.8 252.7z"/>
    <polygon
            points="115.2 272.2 119 258.7 122.9 272.2 125.4 272.2 128.3 248.9 125.3 248.6 123.4 265 123.3 265 119.4 253.5 118.6 253.5 114.7 265 114.6 265 112.9 248.6 109.8 248.9 112.7 272.2 "/>
    <path d="M422.8 225.3h-11.2v-21.4H336v21.4h-11.1v-52.8l11.1-0.1v20.2h75.6v-20.2l11.2 0.1L422.8 225.3 422.8 225.3z"/>
    <path d="M314.9 212.4c0 8.6-2.8 12.9-8.5 12.9h-89v-13h83.1c0.8-0.4 1.5-1 2-1.7 0.6-0.7 1-1.3 1.3-1.9 0-3-1-4.6-3.1-4.7h-75.6c-5.1-0.1-7.7-4.1-7.7-11.7v-9c0-7.4 2.6-11.1 7.8-11.1H315v12.5h-84.1c-0.7 0-1.2 0.4-1.7 1.2s-0.8 1.8-0.8 3 0.3 2.1 0.8 2.6c0.5 0.6 1.1 0.8 1.8 0.8h75.5c5.7 0 8.6 4 8.6 12v8.1L314.9 212.4 314.9 212.4z"/>
    <path d="M168.9 225.3h-10.3 -20.3 -19.9c-5.8 0-8.7-4.3-8.7-12.9v-29c0-7.4 2.9-11.2 8.8-11.2H199c5.6 0 8.3 3.7 8.3 11.2v29.1c0 8.6-2.8 12.9-8.3 12.9h-20.3 -9.8V225.3zM196.1 209.4v-20.6c0-1.5-0.4-2.5-1.2-3.2s-1.7-1.1-2.7-1.4h-68.1c-2 0.1-3 1.6-3 4.6v20.6c0.9 2.2 1.9 3.3 3 3.3h32.7 36.4C194.1 212.6 195.1 211.5 196.1 209.4z"/>
    <path d="M53.4 204H32.9 12.8v21.4H1.9v-53.2H92c5 0 7.6 3.6 7.6 10.9v8.9c0 8-2.5 12.1-7.6 12.1H72.1L53.4 204 53.4 204zM85.8 184.5h-73v8.1H86c1.6-1 2.4-2.3 2.4-3.8C88.5 187.2 87.6 185.8 85.8 184.5z"/>
    <path d="M98.3 160.6c-0.4-3.9-0.6-7.3-0.6-11.4 0-63.4 51.4-114.8 114.9-114.8 8.4 0 16.5 0.9 24.3 2.6 2.1-3.4 1.3-8.1-1.5-16.3 5.2 15.4 8.3 16.9 23.7 11.7 -6.8 2.3-10.9 4.2-12.9 7 47.1 14.4 81.3 58.1 81.3 109.9 0 3.8-0.2 7.6-0.6 11.4h34.5c0.3-3.7 0.4-7.5 0.4-11.4C361.7 66.8 294.9 0 212.5 0S63.3 66.8 63.3 149.2c0 3.8 0.1 7.6 0.4 11.4L98.3 160.6 98.3 160.6z"/>
    <path d="M123 160.6c-0.5-3.8-0.8-7.4-0.8-11.4 0-1.3 0-2.7 0.1-4l0.1-0.1c0 0 44.3-1.2 50.7 15.5H252c7.7-15 50.5-12.8 50.5-12.8l0.2 0.1c0-2.5-0.2-4.9-0.4-7.3 0.3 2.9 0.4 5.7 0.4 8.7 0 3.9-0.2 7.6-0.7 11.4h20.9c0.4-3.7 0.6-7.5 0.6-11.4 0-50.2-33.2-92.5-78.9-106.3 -0.4 3.1 0.6 7.2 2.6 13.2 -5.2-15.4-8.3-16.9-23.7-11.7 4.4-1.5 7.6-2.8 9.9-4.2 -6.8-1.3-13.8-2-21-2 -61.3 0-111.1 49.7-111.1 111.1 0 3.8 0.2 7.6 0.6 11.4H123V160.6zM296.5 117.2l1.8 5.6 1.5 4.5c0 0-43.9 15.4-45.9 9.4C252 130.7 296.5 117.2 296.5 117.2zM239 63.1c0 0-0.1-0.1-0.5-0.4 20.5 6.1 37.8 19.3 49.4 36.8v0.1c0 0-35.3 26.8-50.3 17C222.5 106.9 239 63.1 239 63.1zM235.4 130.6c4.9-1.6 10.1 1.1 11.7 6 1.6 4.9-1.1 10.1-6 11.7 -4.9 1.6-10.1-1.1-11.7-6C227.8 137.5 230.5 132.2 235.4 130.6zM208 59.4h5.9 4.8c0 0 1.1 46.5-5.2 46.5C207.1 105.9 208 59.4 208 59.4zM212.1 111.2c5.1 0 9.3 4.2 9.3 9.3 0 5.1-4.2 9.3-9.3 9.3s-9.3-4.2-9.3-9.3C202.8 115.3 206.9 111.2 212.1 111.2zM177 136.6c1.6-4.9 6.8-7.5 11.7-6 4.9 1.6 7.6 6.8 6 11.7s-6.8 7.6-11.7 6S175.4 141.5 177 136.6zM188.4 62.2l0.2 0.1c0 0 14.6 41.8 0.7 53.1 -13.9 11.3-50.4-17.9-50.4-17.9l-0.1-0.2C150.6 80.4 168.1 67.8 188.4 62.2zM127.5 120.2l1.5-4.5c0 0 44.6 13.3 42.7 19.3 -1.9 6-45.9-9.2-45.9-9.2L127.5 120.2z"/>
</svg>