<svg xmlns="http://www.w3.org/2000/svg" viewBox="0 0 298.5 160.8">
    <path d="M35 160.6c-0.4-3.9-0.6-7.3-0.6-11.4 0-63.4 51.4-114.8 114.9-114.8 8.4 0 16.5 0.9 24.3 2.6 2.1-3.4 1.3-8.1-1.5-16.3 5.2 15.4 8.3 16.9 23.7 11.7 -6.8 2.3-10.9 4.2-12.9 7 47.1 14.4 81.3 58.1 81.3 109.9 0 3.8-0.2 7.6-0.6 11.4h34.5c0.3-3.7 0.4-7.5 0.4-11.4C298.4 66.8 231.6 0 149.2 0S0 66.8 0 149.2c0 3.8 0.1 7.6 0.4 11.4L35 160.6 35 160.6z"/>
    <path d="M59.7 160.6c-0.5-3.8-0.8-7.4-0.8-11.4 0-1.3 0-2.7 0.1-4l0.1-0.1c0 0 44.3-1.2 50.7 15.5h78.9c7.7-15 50.5-12.8 50.5-12.8l0.2 0.1c0-2.5-0.2-4.9-0.4-7.3 0.3 2.9 0.4 5.7 0.4 8.7 0 3.9-0.2 7.6-0.7 11.4h20.9c0.4-3.7 0.6-7.5 0.6-11.4 0-50.2-33.2-92.5-78.9-106.3 -0.4 3.1 0.6 7.2 2.6 13.2 -5.2-15.4-8.3-16.9-23.7-11.7 4.4-1.5 7.6-2.8 9.9-4.2 -6.8-1.3-13.8-2-21-2C87.8 38.3 38 88 38 149.4c0 3.8 0.2 7.6 0.6 11.4h21.1V160.6zM233.2 117.2l1.8 5.6 1.5 4.5c0 0-43.9 15.4-45.9 9.4C188.7 130.7 233.2 117.2 233.2 117.2zM175.7 63.1c0 0-0.1-0.1-0.5-0.4 20.5 6.1 37.8 19.3 49.4 36.8v0.1c0 0-35.3 26.8-50.3 17C159.2 106.9 175.7 63.1 175.7 63.1zM172.1 130.6c4.9-1.6 10.1 1.1 11.7 6 1.6 4.9-1.1 10.1-6 11.7 -4.9 1.6-10.1-1.1-11.7-6C164.5 137.5 167.2 132.2 172.1 130.6zM144.7 59.4h5.9 4.8c0 0 1.1 46.5-5.2 46.5C143.8 105.9 144.7 59.4 144.7 59.4zM148.8 111.2c5.1 0 9.3 4.2 9.3 9.3 0 5.1-4.2 9.3-9.3 9.3s-9.3-4.2-9.3-9.3C139.5 115.3 143.6 111.2 148.8 111.2zM113.7 136.6c1.6-4.9 6.8-7.5 11.7-6 4.9 1.6 7.6 6.8 6 11.7s-6.8 7.6-11.7 6S112.1 141.5 113.7 136.6zM125.1 62.2l0.2 0.1c0 0 14.6 41.8 0.7 53.1 -13.9 11.3-50.4-17.9-50.4-17.9l-0.1-0.2C87.3 80.4 104.8 67.8 125.1 62.2zM64.2 120.2l1.5-4.5c0 0 44.6 13.3 42.7 19.3 -1.9 6-45.9-9.2-45.9-9.2L64.2 120.2z"/>
</svg>
