<svg xmlns="http://www.w3.org/2000/svg" viewBox="0 0 424.6 101.1">
    <rect x="338.1" y="84.5" width="86.5" height="2.8"/>
    <rect y="84.5" width="86.5" height="2.8"/>
    <path d="M299.7 77h3v9.7h9.2V77h3v23.4h-3v-11h-9.2v11h-3V77z"/>
    <path d="M239.7 92.9c0.6 2.9 2 5 5.1 5 2.5 0 4.4-1.3 4.4-3.9 0-2.9-2.4-3.6-4.7-4.5 -3.4-1.4-6.6-2.3-6.6-6.7 0-3.9 3.2-6.1 6.9-6.1 3.9 0 6.2 2.2 7.1 5.9l-2.9 0.9c-0.5-2.3-1.7-3.9-4.3-3.9 -1.9 0-3.8 1-3.8 3.1 0 2.2 1.3 2.8 3.1 3.6l5 2.2c2.1 1.2 3.2 3.1 3.2 5.5 0 4.4-3.1 7-7.4 7 -4.3 0-7.1-2.8-7.8-6.9L239.7 92.9z"/>
    <path d="M177.7 94l-2.2 7 -3.3-0.1 7.7-23.8h3.9l7.8 23.9 -3.4 0.1 -2.1-6.9h-8.4V94zM181.8 80.5l-3.3 10.8h6.6L181.8 80.5z"/>
    <polygon
            points="115.2 100 119 86.5 122.9 100 125.4 100 128.3 76.7 125.3 76.4 123.4 92.8 123.3 92.8 119.4 81.3 118.6 81.3 114.7 92.8 114.6 92.8 112.9 76.4 109.8 76.7 112.7 100 "/>
    <path d="M422.8 53.1h-11.2V31.7H336v21.4h-11.1V0.3L336 0.2v20.2h75.6V0.2l11.2 0.1L422.8 53.1 422.8 53.1z"/>
    <path d="M314.9 40.2c0 8.6-2.8 12.9-8.5 12.9h-89v-13h83.1c0.8-0.4 1.5-1 2-1.7 0.6-0.7 1-1.3 1.3-1.9 0-3-1-4.6-3.1-4.7h-75.6c-5.1-0.1-7.7-4.1-7.7-11.7v-9c0-7.4 2.6-11.1 7.8-11.1H315v12.5h-84.1c-0.7 0-1.2 0.4-1.7 1.2s-0.8 1.8-0.8 3 0.3 2.1 0.8 2.6c0.5 0.6 1.1 0.8 1.8 0.8h75.5c5.7 0 8.6 4 8.6 12v8.1L314.9 40.2 314.9 40.2z"/>
    <path d="M168.9 53.1h-10.3 -20.3 -19.9c-5.8 0-8.7-4.3-8.7-12.9v-29c0-7.4 2.9-11.2 8.8-11.2H199c5.6 0 8.3 3.7 8.3 11.2v29.1c0 8.6-2.8 12.9-8.3 12.9h-20.3 -9.8V53.1zM196.1 37.2V16.6c0-1.5-0.4-2.5-1.2-3.2s-1.7-1.1-2.7-1.4h-68.1c-2 0.1-3 1.6-3 4.6v20.6c0.9 2.2 1.9 3.3 3 3.3h32.7 36.4C194.1 40.4 195.1 39.3 196.1 37.2z"/>
    <path d="M53.4 31.8H32.9 12.8v21.4H1.9V0H92c5 0 7.6 3.6 7.6 10.9v8.9c0 8-2.5 12.1-7.6 12.1H72.1L53.4 31.8 53.4 31.8zM85.8 12.3h-73v8.1H86c1.6-1 2.4-2.3 2.4-3.8C88.5 15 87.6 13.6 85.8 12.3z"/>
</svg>
